<?xml version="1.0" encoding="UTF-8"?>
<svg xmlns="http://www.w3.org/2000/svg" xmlns:xlink="http://www.w3.org/1999/xlink" width="20px" height="20px" viewBox="0 0 20 20" version="1.1">
<g id="surface1">
<path style=" stroke:none;fill-rule:evenodd;fill:rgb(5.882353%,5.882353%,5.882353%);fill-opacity:1;" d="M 9.167969 10.417969 C 9.167969 11.566406 8.421875 12.5 7.5 12.5 C 6.578125 12.5 5.832031 11.566406 5.832031 10.417969 C 5.832031 9.265625 6.578125 8.332031 7.5 8.332031 C 8.421875 8.332031 9.167969 9.265625 9.167969 10.417969 Z M 6.851562 10.417969 C 6.851562 10.863281 7.140625 11.226562 7.5 11.226562 C 7.859375 11.226562 8.148438 10.863281 8.148438 10.417969 C 8.148438 9.96875 7.859375 9.605469 7.5 9.605469 C 7.140625 9.605469 6.851562 9.96875 6.851562 10.417969 Z M 6.851562 10.417969 "/>
<path style=" stroke:none;fill-rule:evenodd;fill:rgb(5.882353%,5.882353%,5.882353%);fill-opacity:1;" d="M 12.5 12.5 C 13.421875 12.5 14.167969 11.566406 14.167969 10.417969 C 14.167969 9.265625 13.421875 8.332031 12.5 8.332031 C 11.578125 8.332031 10.832031 9.265625 10.832031 10.417969 C 10.832031 11.566406 11.578125 12.5 12.5 12.5 Z M 12.5 11.226562 C 12.140625 11.226562 11.851562 10.863281 11.851562 10.417969 C 11.851562 9.96875 12.140625 9.605469 12.5 9.605469 C 12.859375 9.605469 13.148438 9.96875 13.148438 10.417969 C 13.148438 10.863281 12.859375 11.226562 12.5 11.226562 Z M 12.5 11.226562 "/>
<path style=" stroke:none;fill-rule:evenodd;fill:rgb(5.882353%,5.882353%,5.882353%);fill-opacity:1;" d="M 8.320312 2.78125 C 8.285156 2.550781 8.152344 2.351562 7.960938 2.222656 C 7.769531 2.09375 7.53125 2.050781 7.308594 2.105469 C 5.511719 2.535156 4.5 2.890625 2.898438 3.871094 C 2.777344 3.945312 2.675781 4.050781 2.605469 4.175781 C 1.613281 5.949219 0.953125 7.476562 0.546875 9.117188 C 0.144531 10.753906 0 12.464844 0 14.582031 C 0 14.804688 0.0859375 15.015625 0.242188 15.171875 C 1.125 16.054688 2.042969 16.75 3.097656 17.21875 C 4.160156 17.691406 5.320312 17.917969 6.667969 17.917969 C 7.023438 17.917969 7.34375 17.6875 7.457031 17.347656 L 8.019531 15.660156 C 8.644531 15.765625 9.3125 15.832031 10 15.832031 C 10.6875 15.832031 11.355469 15.765625 11.980469 15.660156 L 12.542969 17.347656 C 12.65625 17.6875 12.976562 17.917969 13.332031 17.917969 C 14.679688 17.917969 15.839844 17.691406 16.902344 17.21875 C 17.957031 16.75 18.875 16.054688 19.757812 15.171875 C 19.914062 15.015625 20 14.804688 20 14.582031 C 20 12.464844 19.855469 10.753906 19.453125 9.117188 C 19.046875 7.476562 18.386719 5.949219 17.394531 4.175781 C 17.324219 4.050781 17.222656 3.945312 17.101562 3.871094 C 15.5 2.890625 14.488281 2.535156 12.691406 2.105469 C 12.46875 2.050781 12.230469 2.09375 12.039062 2.222656 C 11.847656 2.351562 11.714844 2.550781 11.679688 2.78125 L 11.363281 4.667969 C 10.941406 4.617188 10.484375 4.582031 10 4.582031 C 9.515625 4.582031 9.058594 4.617188 8.636719 4.667969 Z M 13.929688 16.230469 L 13.613281 15.289062 C 14.351562 15.078125 15.085938 14.832031 15.777344 14.5 C 16.191406 14.300781 16.367188 13.804688 16.167969 13.390625 C 15.96875 12.972656 15.46875 12.800781 15.054688 13 C 14.558594 13.234375 14.039062 13.417969 13.515625 13.578125 C 12.558594 13.878906 11.292969 14.167969 10 14.167969 C 8.707031 14.167969 7.441406 13.878906 6.484375 13.578125 C 5.960938 13.417969 5.441406 13.230469 4.945312 13 C 4.535156 12.804688 4.03125 12.976562 3.832031 13.390625 C 3.632812 13.800781 3.816406 14.308594 4.226562 14.503906 C 4.917969 14.832031 5.648438 15.078125 6.386719 15.289062 L 6.070312 16.230469 C 5.1875 16.175781 4.445312 15.996094 3.777344 15.695312 C 3.042969 15.371094 2.363281 14.890625 1.667969 14.234375 C 1.683594 12.355469 1.828125 10.890625 2.167969 9.519531 C 2.511719 8.121094 3.070312 6.785156 3.953125 5.179688 C 5.003906 4.554688 5.75 4.242188 6.828125 3.945312 L 7.007812 5.019531 C 6.277344 5.246094 5.535156 5.542969 4.917969 6 C 4.558594 6.269531 4.480469 6.804688 4.75 7.167969 C 5.023438 7.535156 5.542969 7.609375 5.914062 7.335938 C 6.21875 7.117188 6.574219 6.953125 6.925781 6.816406 C 7.621094 6.535156 8.664062 6.25 10 6.25 C 11.335938 6.25 12.378906 6.535156 13.074219 6.816406 C 13.425781 6.953125 13.78125 7.117188 14.085938 7.335938 C 14.457031 7.609375 14.976562 7.535156 15.25 7.167969 C 15.519531 6.804688 15.4375 6.261719 15.078125 5.996094 C 14.457031 5.546875 13.722656 5.246094 12.992188 5.019531 L 13.171875 3.945312 C 14.25 4.242188 14.996094 4.554688 16.046875 5.179688 C 16.929688 6.785156 17.488281 8.121094 17.835938 9.519531 C 18.171875 10.890625 18.316406 12.355469 18.332031 14.234375 C 17.636719 14.890625 16.957031 15.371094 16.222656 15.695312 C 15.554688 15.996094 14.8125 16.175781 13.929688 16.230469 Z M 7.5 12.5 C 8.421875 12.5 9.167969 11.566406 9.167969 10.417969 C 9.167969 9.265625 8.421875 8.332031 7.5 8.332031 C 6.578125 8.332031 5.832031 9.265625 5.832031 10.417969 C 5.832031 11.566406 6.578125 12.5 7.5 12.5 Z M 14.167969 10.417969 C 14.167969 11.566406 13.421875 12.5 12.5 12.5 C 11.578125 12.5 10.832031 11.566406 10.832031 10.417969 C 10.832031 9.265625 11.578125 8.332031 12.5 8.332031 C 13.421875 8.332031 14.167969 9.265625 14.167969 10.417969 Z M 7.5 11.226562 C 7.140625 11.226562 6.851562 10.863281 6.851562 10.417969 C 6.851562 9.96875 7.140625 9.605469 7.5 9.605469 C 7.859375 9.605469 8.148438 9.96875 8.148438 10.417969 C 8.148438 10.863281 7.859375 11.226562 7.5 11.226562 Z M 12.5 11.226562 C 12.140625 11.226562 11.851562 10.863281 11.851562 10.417969 C 11.851562 9.96875 12.140625 9.605469 12.5 9.605469 C 12.859375 9.605469 13.148438 9.96875 13.148438 10.417969 C 13.148438 10.863281 12.859375 11.226562 12.5 11.226562 Z M 12.5 11.226562 "/>
</g>
</svg>
