<?xml version="1.0" encoding="UTF-8"?>
<svg xmlns="http://www.w3.org/2000/svg" xmlns:xlink="http://www.w3.org/1999/xlink" width="20px" height="20px" viewBox="0 0 20 20" version="1.1">
<g id="surface1">
<path style=" stroke:none;fill-rule:evenodd;fill:rgb(0%,0%,0%);fill-opacity:1;" d="M 10 0 C 15.523438 0 20 4.589844 20 10.253906 C 20 14.78125 17.136719 18.625 13.167969 19.980469 C 12.660156 20.082031 12.480469 19.761719 12.480469 19.488281 C 12.480469 19.152344 12.492188 18.046875 12.492188 16.675781 C 12.492188 15.71875 12.171875 15.09375 11.8125 14.777344 C 14.039062 14.523438 16.378906 13.65625 16.378906 9.71875 C 16.378906 8.597656 15.992188 7.683594 15.351562 6.964844 C 15.453125 6.707031 15.796875 5.664062 15.253906 4.253906 C 15.253906 4.253906 14.414062 3.976562 12.503906 5.304688 C 11.707031 5.074219 10.851562 4.960938 10 4.957031 C 9.148438 4.960938 8.296875 5.074219 7.496094 5.304688 C 5.585938 3.976562 4.746094 4.253906 4.746094 4.253906 C 4.203125 5.664062 4.546875 6.707031 4.648438 6.964844 C 4.011719 7.683594 3.617188 8.597656 3.617188 9.71875 C 3.617188 13.644531 5.953125 14.527344 8.175781 14.785156 C 7.890625 15.039062 7.628906 15.492188 7.539062 16.15625 C 6.96875 16.417969 5.523438 16.871094 4.628906 15.304688 C 4.628906 15.304688 4.101562 14.320312 3.097656 14.246094 C 3.097656 14.246094 2.121094 14.234375 3.027344 14.871094 C 3.027344 14.871094 3.683594 15.183594 4.140625 16.371094 C 4.140625 16.371094 4.726562 18.199219 7.507812 17.578125 C 7.511719 18.4375 7.523438 19.246094 7.523438 19.488281 C 7.523438 19.761719 7.339844 20.078125 6.839844 19.980469 C 2.863281 18.628906 0 14.78125 0 10.253906 C 0 4.589844 4.476562 0 10 0 "/>
</g>
</svg>
